<svg id="visual" viewBox="0 0 100 100" width="100" height="100" xmlns="http://www.w3.org/2000/svg" xmlns:xlink="http://www.w3.org/1999/xlink" version="1.1"><g transform="translate(54.45585880221951 52.98255313025028)"><path d="M30.3 -42.8C37.9 -36.2 41.8 -25.5 43.5 -15.3C45.3 -5.1 44.9 4.7 41.8 13.4C38.7 22.1 32.9 29.6 25.5 34.9C18 40.1 9 43.1 -0.9 44.3C-10.8 45.5 -21.6 45 -31.5 40.5C-41.4 36.1 -50.4 27.7 -52.8 17.8C-55.2 7.8 -50.9 -3.7 -45.9 -13.6C-40.9 -23.6 -35.1 -32 -27.4 -38.5C-19.6 -45 -9.8 -49.5 0.8 -50.6C11.4 -51.6 22.7 -49.3 30.3 -42.8" fill="#BB004B"></path></g></svg>