<svg id="visual" viewBox="0 0 100 100" width="100" height="100" xmlns="http://www.w3.org/2000/svg" xmlns:xlink="http://www.w3.org/1999/xlink" version="1.1"><g transform="translate(52.253095195367926 50.82635896593037)"><path d="M22 -30.6C29.3 -25 36.5 -19.6 38.9 -12.6C41.2 -5.6 38.7 3.1 35.9 11.7C33.1 20.2 30.1 28.7 24 33.9C18 39.1 9 41.1 0 41.1C-9 41.1 -18 39.1 -26 34.6C-33.9 30 -40.7 22.7 -43.2 14.2C-45.7 5.8 -43.7 -3.9 -39.9 -12.2C-36.1 -20.4 -30.4 -27.2 -23.4 -32.9C-16.5 -38.7 -8.2 -43.3 -0.4 -42.7C7.3 -42.1 14.7 -36.2 22 -30.6" fill="#BB004B"></path></g></svg>